# xmcd
#
# Track frame offsets: 
#        150
#        14242
#        28052
#        41240
#        55230
#        69372
#        82362
#        96987
#        110572
#        121360
#        135410
#        149002
#        162300
#        173195
#        185390
#        197060
#        209900
#        222285
#        235652
#        249482
#
# Disc length: 3519 seconds
#
# Revision: 2
# Processed by: cddbd v1.5.2PL0 Copyright (c) Steve Scherf et al.
# Submitted via: ExactAudioCopyFreeDBPlugin 1.0
#
DISCID=3b0dbd14
DTITLE=Charles Brown - The Complete Aladdin Recordings of Charles Brow
DTITLE=n [Mosaic box set]
DYEAR=1994
DGENRE=Rhythm and Blues
TTITLE0=Gee!
TTITLE1=One Never Knows, Does One?
TTITLE2=Texas Blues
TTITLE3=It's Rainin'
TTITLE4=Don't Fool with My Heart
TTITLE5=I've Made Up My Mind
TTITLE6=I've Got That Old Feeling
TTITLE7=Be Still My Heart
TTITLE8=Without the One You Love
TTITLE9=Black Night
TTITLE10=Seven Long Days
TTITLE11=I'll Always Be in Love with You
TTITLE12=Once There Lived a Fool
TTITLE13=The Message
TTITLE14=All My Life
TTITLE15=Moonrise
TTITLE16=Tender Heart
TTITLE17=Still Water
TTITLE18=Hard Times
TTITLE19=Love is a Gamble
EXTD=
EXTT0=
EXTT1=
EXTT2=
EXTT3=
EXTT4=
EXTT5=
EXTT6=
EXTT7=
EXTT8=
EXTT9=
EXTT10=
EXTT11=
EXTT12=
EXTT13=
EXTT14=
EXTT15=
EXTT16=
EXTT17=
EXTT18=
EXTT19=
PLAYORDER=
